<mxfile host="65bd71144e">
    <diagram id="W95EfZVqpujXyN9TGcH1" name="Page-1">
        <mxGraphModel dx="1138" dy="740" grid="1" gridSize="10" guides="1" tooltips="1" connect="1" arrows="1" fold="1" page="1" pageScale="1" pageWidth="850" pageHeight="1100" math="0" shadow="0">
            <root>
                <mxCell id="0"/>
                <mxCell id="1" parent="0"/>
                <mxCell id="2" value="" style="shape=umlActor;verticalLabelPosition=bottom;verticalAlign=top;html=1;" vertex="1" parent="1">
                    <mxGeometry x="42" y="50" width="30" height="60" as="geometry"/>
                </mxCell>
                <mxCell id="6" style="edgeStyle=none;html=1;dashed=1;endArrow=none;endFill=0;" edge="1" parent="1" source="4">
                    <mxGeometry relative="1" as="geometry">
                        <mxPoint x="57" y="147" as="targetPoint"/>
                    </mxGeometry>
                </mxCell>
                <mxCell id="4" value="&lt;span style=&quot;color: rgb(0, 0, 0); text-wrap-mode: nowrap;&quot;&gt;Технолог&lt;/span&gt;" style="rounded=0;whiteSpace=wrap;html=1;" vertex="1" parent="1">
                    <mxGeometry x="-3" y="120" width="120" height="20" as="geometry"/>
                </mxCell>
                <mxCell id="11" style="edgeStyle=none;shape=connector;rounded=1;html=1;dashed=1;strokeColor=default;align=center;verticalAlign=middle;fontFamily=Helvetica;fontSize=11;fontColor=default;labelBackgroundColor=default;endArrow=none;endFill=0;" edge="1" parent="1" source="74">
                    <mxGeometry relative="1" as="geometry">
                        <mxPoint x="230" y="920" as="targetPoint"/>
                        <mxPoint x="230" y="290" as="sourcePoint"/>
                    </mxGeometry>
                </mxCell>
                <mxCell id="7" value="Приложение" style="rounded=0;whiteSpace=wrap;html=1;fontFamily=Helvetica;fontSize=11;fontColor=default;labelBackgroundColor=default;" vertex="1" parent="1">
                    <mxGeometry x="170" y="120" width="120" height="20" as="geometry"/>
                </mxCell>
                <mxCell id="8" value="" style="shape=cylinder3;whiteSpace=wrap;html=1;boundedLbl=1;backgroundOutline=1;size=3.999999999999922;fontFamily=Helvetica;fontSize=11;fontColor=default;labelBackgroundColor=default;" vertex="1" parent="1">
                    <mxGeometry x="385" y="60" width="30" height="40" as="geometry"/>
                </mxCell>
                <mxCell id="12" style="edgeStyle=none;shape=connector;rounded=1;html=1;exitX=0.5;exitY=1;exitDx=0;exitDy=0;dashed=1;strokeColor=default;align=center;verticalAlign=middle;fontFamily=Helvetica;fontSize=11;fontColor=default;labelBackgroundColor=default;endArrow=none;endFill=0;" edge="1" parent="1" source="26">
                    <mxGeometry relative="1" as="geometry">
                        <mxPoint x="400" y="930" as="targetPoint"/>
                    </mxGeometry>
                </mxCell>
                <mxCell id="9" value="БД" style="rounded=0;whiteSpace=wrap;html=1;fontFamily=Helvetica;fontSize=11;fontColor=default;labelBackgroundColor=default;" vertex="1" parent="1">
                    <mxGeometry x="340" y="120" width="120" height="20" as="geometry"/>
                </mxCell>
                <mxCell id="13" value="" style="endArrow=open;html=1;rounded=1;strokeColor=default;align=center;verticalAlign=middle;fontFamily=Helvetica;fontSize=11;fontColor=default;labelBackgroundColor=default;edgeStyle=none;endFill=0;exitX=1.029;exitY=0.03;exitDx=0;exitDy=0;exitPerimeter=0;entryX=-0.033;entryY=0.086;entryDx=0;entryDy=0;entryPerimeter=0;" edge="1" parent="1">
                    <mxGeometry width="50" height="50" relative="1" as="geometry">
                        <mxPoint x="62.289999999999964" y="169.79999999999984" as="sourcePoint"/>
                        <mxPoint x="224.66999999999996" y="171.18000000000006" as="targetPoint"/>
                    </mxGeometry>
                </mxCell>
                <mxCell id="15" value="" style="edgeStyle=none;shape=connector;rounded=1;html=1;exitX=0.5;exitY=1;exitDx=0;exitDy=0;dashed=1;strokeColor=default;align=center;verticalAlign=middle;fontFamily=Helvetica;fontSize=11;fontColor=default;labelBackgroundColor=default;endArrow=none;endFill=0;" edge="1" parent="1" source="7" target="41">
                    <mxGeometry relative="1" as="geometry">
                        <mxPoint x="230" y="160" as="targetPoint"/>
                        <mxPoint x="230" y="140" as="sourcePoint"/>
                    </mxGeometry>
                </mxCell>
                <mxCell id="16" value="Запуск приложения" style="text;html=1;align=center;verticalAlign=middle;resizable=0;points=[];autosize=1;strokeColor=none;fillColor=none;fontFamily=Helvetica;fontSize=11;fontColor=default;labelBackgroundColor=default;" vertex="1" parent="1">
                    <mxGeometry x="80" y="147" width="120" height="30" as="geometry"/>
                </mxCell>
                <mxCell id="17" value="" style="endArrow=block;html=1;rounded=1;strokeColor=default;align=center;verticalAlign=middle;fontFamily=Helvetica;fontSize=11;fontColor=default;labelBackgroundColor=default;edgeStyle=none;endFill=1;exitX=1.076;exitY=0.101;exitDx=0;exitDy=0;exitPerimeter=0;entryX=-0.22;entryY=0.497;entryDx=0;entryDy=0;entryPerimeter=0;" edge="1" parent="1">
                    <mxGeometry width="50" height="50" relative="1" as="geometry">
                        <mxPoint x="62.75999999999999" y="223.75999999999988" as="sourcePoint"/>
                        <mxPoint x="222.8" y="224.61" as="targetPoint"/>
                    </mxGeometry>
                </mxCell>
                <mxCell id="18" value="Вход учётную запись" style="text;html=1;align=center;verticalAlign=middle;resizable=0;points=[];autosize=1;strokeColor=none;fillColor=none;fontFamily=Helvetica;fontSize=11;fontColor=default;labelBackgroundColor=default;" vertex="1" parent="1">
                    <mxGeometry x="75" y="200" width="130" height="30" as="geometry"/>
                </mxCell>
                <mxCell id="20" value="" style="ellipse;html=1;fontFamily=Helvetica;fontSize=11;fontColor=default;labelBackgroundColor=default;" vertex="1" parent="1">
                    <mxGeometry x="110" y="245" width="10" height="10" as="geometry"/>
                </mxCell>
                <mxCell id="21" value="" style="endArrow=open;html=1;rounded=0;align=center;verticalAlign=top;endFill=0;labelBackgroundColor=none;endSize=6;strokeColor=default;fontFamily=Helvetica;fontSize=11;fontColor=default;edgeStyle=none;" edge="1" source="20" parent="1">
                    <mxGeometry relative="1" as="geometry">
                        <mxPoint x="150" y="250" as="targetPoint"/>
                    </mxGeometry>
                </mxCell>
                <mxCell id="22" value="login" style="text;html=1;align=center;verticalAlign=middle;resizable=0;points=[];autosize=1;strokeColor=none;fillColor=none;fontFamily=Helvetica;fontSize=11;fontColor=default;labelBackgroundColor=default;" vertex="1" parent="1">
                    <mxGeometry x="110" y="225" width="50" height="30" as="geometry"/>
                </mxCell>
                <mxCell id="23" value="" style="ellipse;html=1;fontFamily=Helvetica;fontSize=11;fontColor=default;labelBackgroundColor=default;" vertex="1" parent="1">
                    <mxGeometry x="110" y="265" width="10" height="10" as="geometry"/>
                </mxCell>
                <mxCell id="24" value="" style="endArrow=open;html=1;rounded=0;align=center;verticalAlign=top;endFill=0;labelBackgroundColor=none;endSize=6;strokeColor=default;fontFamily=Helvetica;fontSize=11;fontColor=default;edgeStyle=none;" edge="1" parent="1" source="23">
                    <mxGeometry relative="1" as="geometry">
                        <mxPoint x="150" y="270" as="targetPoint"/>
                    </mxGeometry>
                </mxCell>
                <mxCell id="25" value="password" style="text;html=1;align=center;verticalAlign=middle;resizable=0;points=[];autosize=1;strokeColor=none;fillColor=none;fontFamily=Helvetica;fontSize=11;fontColor=default;labelBackgroundColor=default;" vertex="1" parent="1">
                    <mxGeometry x="105" y="245" width="70" height="30" as="geometry"/>
                </mxCell>
                <mxCell id="27" value="" style="edgeStyle=none;shape=connector;rounded=1;html=1;exitX=0.5;exitY=1;exitDx=0;exitDy=0;dashed=1;strokeColor=default;align=center;verticalAlign=middle;fontFamily=Helvetica;fontSize=11;fontColor=default;labelBackgroundColor=default;endArrow=none;endFill=0;" edge="1" parent="1" source="9" target="26">
                    <mxGeometry relative="1" as="geometry">
                        <mxPoint x="400" y="930" as="targetPoint"/>
                        <mxPoint x="400" y="140" as="sourcePoint"/>
                    </mxGeometry>
                </mxCell>
                <mxCell id="26" value="" style="rounded=0;whiteSpace=wrap;html=1;" vertex="1" parent="1">
                    <mxGeometry x="395" y="205" width="10" height="130" as="geometry"/>
                </mxCell>
                <mxCell id="28" value="" style="endArrow=block;html=1;rounded=1;strokeColor=default;align=center;verticalAlign=middle;fontFamily=Helvetica;fontSize=11;fontColor=default;labelBackgroundColor=default;edgeStyle=none;endFill=1;entryX=0.06;entryY=0.197;entryDx=0;entryDy=0;entryPerimeter=0;exitX=0.94;exitY=0.552;exitDx=0;exitDy=0;exitPerimeter=0;" edge="1" parent="1" target="26">
                    <mxGeometry width="50" height="50" relative="1" as="geometry">
                        <mxPoint x="234.39999999999998" y="231.76" as="sourcePoint"/>
                        <mxPoint x="388" y="224.31" as="targetPoint"/>
                    </mxGeometry>
                </mxCell>
                <mxCell id="29" value="Запрос на вход" style="text;html=1;align=center;verticalAlign=middle;resizable=0;points=[];autosize=1;strokeColor=none;fillColor=none;fontFamily=Helvetica;fontSize=11;fontColor=default;labelBackgroundColor=default;" vertex="1" parent="1">
                    <mxGeometry x="260" y="205" width="100" height="30" as="geometry"/>
                </mxCell>
                <mxCell id="33" value="" style="ellipse;html=1;fontFamily=Helvetica;fontSize=11;fontColor=default;labelBackgroundColor=default;" vertex="1" parent="1">
                    <mxGeometry x="295" y="245" width="10" height="10" as="geometry"/>
                </mxCell>
                <mxCell id="34" value="" style="endArrow=open;html=1;rounded=0;align=center;verticalAlign=top;endFill=0;labelBackgroundColor=none;endSize=6;strokeColor=default;fontFamily=Helvetica;fontSize=11;fontColor=default;edgeStyle=none;" edge="1" parent="1" source="33">
                    <mxGeometry relative="1" as="geometry">
                        <mxPoint x="335" y="250" as="targetPoint"/>
                    </mxGeometry>
                </mxCell>
                <mxCell id="35" value="login" style="text;html=1;align=center;verticalAlign=middle;resizable=0;points=[];autosize=1;strokeColor=none;fillColor=none;fontFamily=Helvetica;fontSize=11;fontColor=default;labelBackgroundColor=default;" vertex="1" parent="1">
                    <mxGeometry x="295" y="225" width="50" height="30" as="geometry"/>
                </mxCell>
                <mxCell id="36" value="" style="ellipse;html=1;fontFamily=Helvetica;fontSize=11;fontColor=default;labelBackgroundColor=default;" vertex="1" parent="1">
                    <mxGeometry x="295" y="265" width="10" height="10" as="geometry"/>
                </mxCell>
                <mxCell id="37" value="" style="endArrow=open;html=1;rounded=0;align=center;verticalAlign=top;endFill=0;labelBackgroundColor=none;endSize=6;strokeColor=default;fontFamily=Helvetica;fontSize=11;fontColor=default;edgeStyle=none;" edge="1" parent="1" source="36">
                    <mxGeometry relative="1" as="geometry">
                        <mxPoint x="335" y="270" as="targetPoint"/>
                    </mxGeometry>
                </mxCell>
                <mxCell id="38" value="password" style="text;html=1;align=center;verticalAlign=middle;resizable=0;points=[];autosize=1;strokeColor=none;fillColor=none;fontFamily=Helvetica;fontSize=11;fontColor=default;labelBackgroundColor=default;" vertex="1" parent="1">
                    <mxGeometry x="290" y="245" width="70" height="30" as="geometry"/>
                </mxCell>
                <mxCell id="39" value="" style="endArrow=block;html=1;rounded=0;strokeColor=default;align=center;verticalAlign=middle;fontFamily=Helvetica;fontSize=11;fontColor=default;labelBackgroundColor=default;edgeStyle=orthogonalEdgeStyle;endFill=1;exitX=1.017;exitY=0.198;exitDx=0;exitDy=0;exitPerimeter=0;entryX=1.005;entryY=0.429;entryDx=0;entryDy=0;entryPerimeter=0;" edge="1" parent="1" source="26" target="26">
                    <mxGeometry width="50" height="50" relative="1" as="geometry">
                        <mxPoint x="450" y="231" as="sourcePoint"/>
                        <mxPoint x="410" y="250" as="targetPoint"/>
                        <Array as="points">
                            <mxPoint x="440" y="231"/>
                            <mxPoint x="440" y="260"/>
                            <mxPoint x="405" y="260"/>
                        </Array>
                    </mxGeometry>
                </mxCell>
                <mxCell id="40" value="Поиск и валидация аккаунта" style="text;html=1;align=center;verticalAlign=middle;resizable=0;points=[];autosize=1;strokeColor=none;fillColor=none;fontFamily=Helvetica;fontSize=11;fontColor=default;labelBackgroundColor=default;" vertex="1" parent="1">
                    <mxGeometry x="405" y="205" width="170" height="30" as="geometry"/>
                </mxCell>
                <mxCell id="41" value="" style="rounded=0;whiteSpace=wrap;html=1;" vertex="1" parent="1">
                    <mxGeometry x="225" y="161" width="10" height="229" as="geometry"/>
                </mxCell>
                <mxCell id="42" value="" style="endArrow=none;html=1;rounded=1;strokeColor=default;align=center;verticalAlign=middle;fontFamily=Helvetica;fontSize=11;fontColor=default;labelBackgroundColor=default;edgeStyle=none;endFill=0;entryX=0.06;entryY=0.197;entryDx=0;entryDy=0;entryPerimeter=0;exitX=0.94;exitY=0.552;exitDx=0;exitDy=0;exitPerimeter=0;dashed=1;startArrow=open;startFill=0;" edge="1" parent="1">
                    <mxGeometry width="50" height="50" relative="1" as="geometry">
                        <mxPoint x="233.39999999999998" y="310.76" as="sourcePoint"/>
                        <mxPoint x="395" y="310" as="targetPoint"/>
                    </mxGeometry>
                </mxCell>
                <mxCell id="43" value="Валидация" style="text;html=1;align=center;verticalAlign=middle;resizable=0;points=[];autosize=1;strokeColor=none;fillColor=none;fontFamily=Helvetica;fontSize=11;fontColor=default;labelBackgroundColor=default;" vertex="1" parent="1">
                    <mxGeometry x="250" y="288" width="80" height="30" as="geometry"/>
                </mxCell>
                <mxCell id="45" value="Отображение &lt;br&gt;входа в систему" style="text;html=1;align=center;verticalAlign=middle;resizable=0;points=[];autosize=1;strokeColor=none;fillColor=none;fontFamily=Helvetica;fontSize=11;fontColor=default;labelBackgroundColor=default;" vertex="1" parent="1">
                    <mxGeometry x="260" y="330" width="110" height="40" as="geometry"/>
                </mxCell>
                <mxCell id="46" value="" style="endArrow=none;html=1;rounded=1;strokeColor=default;align=center;verticalAlign=middle;fontFamily=Helvetica;fontSize=11;fontColor=default;labelBackgroundColor=default;edgeStyle=none;endFill=0;entryX=0.06;entryY=0.197;entryDx=0;entryDy=0;entryPerimeter=0;exitX=0.94;exitY=0.552;exitDx=0;exitDy=0;exitPerimeter=0;dashed=1;startArrow=open;startFill=0;" edge="1" parent="1">
                    <mxGeometry width="50" height="50" relative="1" as="geometry">
                        <mxPoint x="63.39999999999998" y="382.76" as="sourcePoint"/>
                        <mxPoint x="225" y="382" as="targetPoint"/>
                    </mxGeometry>
                </mxCell>
                <mxCell id="47" value="Выдача прав" style="text;html=1;align=center;verticalAlign=middle;resizable=0;points=[];autosize=1;strokeColor=none;fillColor=none;fontFamily=Helvetica;fontSize=11;fontColor=default;labelBackgroundColor=default;" vertex="1" parent="1">
                    <mxGeometry x="75" y="360" width="90" height="30" as="geometry"/>
                </mxCell>
                <mxCell id="48" value="" style="rounded=0;whiteSpace=wrap;html=1;" vertex="1" parent="1">
                    <mxGeometry x="52" y="147" width="10" height="760" as="geometry"/>
                </mxCell>
                <mxCell id="49" value="" style="endArrow=block;html=1;rounded=1;strokeColor=default;align=center;verticalAlign=middle;fontFamily=Helvetica;fontSize=11;fontColor=default;labelBackgroundColor=default;edgeStyle=none;endFill=1;exitX=1.076;exitY=0.101;exitDx=0;exitDy=0;exitPerimeter=0;entryX=-0.22;entryY=0.497;entryDx=0;entryDy=0;entryPerimeter=0;" edge="1" parent="1">
                    <mxGeometry width="50" height="50" relative="1" as="geometry">
                        <mxPoint x="62.75999999999999" y="443.7599999999999" as="sourcePoint"/>
                        <mxPoint x="222.8" y="444.61" as="targetPoint"/>
                    </mxGeometry>
                </mxCell>
                <mxCell id="50" value="Запрос на просмотр &lt;br&gt;материалов на складе" style="text;html=1;align=center;verticalAlign=middle;resizable=0;points=[];autosize=1;strokeColor=none;fillColor=none;fontFamily=Helvetica;fontSize=11;fontColor=default;labelBackgroundColor=default;" vertex="1" parent="1">
                    <mxGeometry x="70" y="405" width="140" height="40" as="geometry"/>
                </mxCell>
                <mxCell id="57" value="" style="rounded=0;whiteSpace=wrap;html=1;" vertex="1" parent="1">
                    <mxGeometry x="395" y="425" width="10" height="130" as="geometry"/>
                </mxCell>
                <mxCell id="58" value="" style="endArrow=block;html=1;rounded=1;strokeColor=default;align=center;verticalAlign=middle;fontFamily=Helvetica;fontSize=11;fontColor=default;labelBackgroundColor=default;edgeStyle=none;endFill=1;entryX=0.06;entryY=0.197;entryDx=0;entryDy=0;entryPerimeter=0;exitX=0.94;exitY=0.552;exitDx=0;exitDy=0;exitPerimeter=0;" edge="1" parent="1" target="57">
                    <mxGeometry width="50" height="50" relative="1" as="geometry">
                        <mxPoint x="234.39999999999998" y="451.76" as="sourcePoint"/>
                        <mxPoint x="388" y="444.31" as="targetPoint"/>
                    </mxGeometry>
                </mxCell>
                <mxCell id="59" value="&lt;span style=&quot;color: rgb(0, 0, 0);&quot;&gt;Запрос на просмотр&lt;/span&gt;&lt;br style=&quot;color: rgb(63, 63, 63); scrollbar-color: rgb(226, 226, 226) rgb(251, 251, 251);&quot;&gt;&lt;span style=&quot;color: rgb(0, 0, 0);&quot;&gt;материалов на складе&lt;/span&gt;" style="text;html=1;align=center;verticalAlign=middle;resizable=0;points=[];autosize=1;strokeColor=none;fillColor=none;fontFamily=Helvetica;fontSize=11;fontColor=default;labelBackgroundColor=default;" vertex="1" parent="1">
                    <mxGeometry x="245" y="415" width="140" height="40" as="geometry"/>
                </mxCell>
                <mxCell id="66" value="" style="endArrow=block;html=1;rounded=0;strokeColor=default;align=center;verticalAlign=middle;fontFamily=Helvetica;fontSize=11;fontColor=default;labelBackgroundColor=default;edgeStyle=orthogonalEdgeStyle;endFill=1;exitX=1.017;exitY=0.198;exitDx=0;exitDy=0;exitPerimeter=0;entryX=1.005;entryY=0.429;entryDx=0;entryDy=0;entryPerimeter=0;" edge="1" parent="1" source="57" target="57">
                    <mxGeometry width="50" height="50" relative="1" as="geometry">
                        <mxPoint x="450" y="451" as="sourcePoint"/>
                        <mxPoint x="410" y="470" as="targetPoint"/>
                        <Array as="points">
                            <mxPoint x="440" y="451"/>
                            <mxPoint x="440" y="480"/>
                            <mxPoint x="405" y="480"/>
                        </Array>
                    </mxGeometry>
                </mxCell>
                <mxCell id="67" value="поиск данных" style="text;html=1;align=center;verticalAlign=middle;resizable=0;points=[];autosize=1;strokeColor=none;fillColor=none;fontFamily=Helvetica;fontSize=11;fontColor=default;labelBackgroundColor=default;" vertex="1" parent="1">
                    <mxGeometry x="415" y="425" width="90" height="30" as="geometry"/>
                </mxCell>
                <mxCell id="68" value="" style="endArrow=none;html=1;rounded=1;strokeColor=default;align=center;verticalAlign=middle;fontFamily=Helvetica;fontSize=11;fontColor=default;labelBackgroundColor=default;edgeStyle=none;endFill=0;entryX=0.06;entryY=0.197;entryDx=0;entryDy=0;entryPerimeter=0;exitX=0.94;exitY=0.552;exitDx=0;exitDy=0;exitPerimeter=0;dashed=1;startArrow=open;startFill=0;" edge="1" parent="1">
                    <mxGeometry width="50" height="50" relative="1" as="geometry">
                        <mxPoint x="233.39999999999998" y="530.76" as="sourcePoint"/>
                        <mxPoint x="395" y="530" as="targetPoint"/>
                    </mxGeometry>
                </mxCell>
                <mxCell id="69" value="Найденные данные" style="text;html=1;align=center;verticalAlign=middle;resizable=0;points=[];autosize=1;strokeColor=none;fillColor=none;fontFamily=Helvetica;fontSize=11;fontColor=default;labelBackgroundColor=default;" vertex="1" parent="1">
                    <mxGeometry x="230" y="508" width="120" height="30" as="geometry"/>
                </mxCell>
                <mxCell id="70" value="" style="endArrow=block;html=1;rounded=0;strokeColor=default;align=center;verticalAlign=middle;fontFamily=Helvetica;fontSize=11;fontColor=default;labelBackgroundColor=default;edgeStyle=orthogonalEdgeStyle;endFill=1;exitX=1.017;exitY=0.198;exitDx=0;exitDy=0;exitPerimeter=0;entryX=1.005;entryY=0.429;entryDx=0;entryDy=0;entryPerimeter=0;" edge="1" parent="1">
                    <mxGeometry width="50" height="50" relative="1" as="geometry">
                        <mxPoint x="235" y="556" as="sourcePoint"/>
                        <mxPoint x="235" y="586" as="targetPoint"/>
                        <Array as="points">
                            <mxPoint x="270" y="556"/>
                            <mxPoint x="270" y="585"/>
                            <mxPoint x="235" y="585"/>
                        </Array>
                    </mxGeometry>
                </mxCell>
                <mxCell id="71" value="Отображение &lt;br&gt;данных" style="text;html=1;align=center;verticalAlign=middle;resizable=0;points=[];autosize=1;strokeColor=none;fillColor=none;fontFamily=Helvetica;fontSize=11;fontColor=default;labelBackgroundColor=default;" vertex="1" parent="1">
                    <mxGeometry x="270" y="550" width="90" height="40" as="geometry"/>
                </mxCell>
                <mxCell id="72" value="" style="endArrow=none;html=1;rounded=1;strokeColor=default;align=center;verticalAlign=middle;fontFamily=Helvetica;fontSize=11;fontColor=default;labelBackgroundColor=default;edgeStyle=none;endFill=0;entryX=0.06;entryY=0.197;entryDx=0;entryDy=0;entryPerimeter=0;exitX=0.94;exitY=0.552;exitDx=0;exitDy=0;exitPerimeter=0;dashed=1;startArrow=open;startFill=0;" edge="1" parent="1">
                    <mxGeometry width="50" height="50" relative="1" as="geometry">
                        <mxPoint x="63.39999999999998" y="602.76" as="sourcePoint"/>
                        <mxPoint x="225" y="602" as="targetPoint"/>
                    </mxGeometry>
                </mxCell>
                <mxCell id="73" value="Найденные материалы" style="text;html=1;align=center;verticalAlign=middle;resizable=0;points=[];autosize=1;strokeColor=none;fillColor=none;fontFamily=Helvetica;fontSize=11;fontColor=default;labelBackgroundColor=default;" vertex="1" parent="1">
                    <mxGeometry x="75" y="580" width="140" height="30" as="geometry"/>
                </mxCell>
                <mxCell id="75" value="" style="edgeStyle=none;shape=connector;rounded=1;html=1;dashed=1;strokeColor=default;align=center;verticalAlign=middle;fontFamily=Helvetica;fontSize=11;fontColor=default;labelBackgroundColor=default;endArrow=none;endFill=0;" edge="1" parent="1" source="41" target="74">
                    <mxGeometry relative="1" as="geometry">
                        <mxPoint x="230" y="920" as="targetPoint"/>
                        <mxPoint x="230" y="390" as="sourcePoint"/>
                    </mxGeometry>
                </mxCell>
                <mxCell id="74" value="" style="rounded=0;whiteSpace=wrap;html=1;" vertex="1" parent="1">
                    <mxGeometry x="225" y="436" width="10" height="184" as="geometry"/>
                </mxCell>
                <mxCell id="76" value="" style="endArrow=block;html=1;rounded=0;strokeColor=default;align=center;verticalAlign=middle;fontFamily=Helvetica;fontSize=11;fontColor=default;labelBackgroundColor=default;edgeStyle=orthogonalEdgeStyle;endFill=1;exitX=1.017;exitY=0.198;exitDx=0;exitDy=0;exitPerimeter=0;entryX=1.005;entryY=0.429;entryDx=0;entryDy=0;entryPerimeter=0;" edge="1" parent="1">
                    <mxGeometry width="50" height="50" relative="1" as="geometry">
                        <mxPoint x="235" y="330" as="sourcePoint"/>
                        <mxPoint x="235" y="360" as="targetPoint"/>
                        <Array as="points">
                            <mxPoint x="270" y="330"/>
                            <mxPoint x="270" y="359"/>
                            <mxPoint x="235" y="359"/>
                        </Array>
                    </mxGeometry>
                </mxCell>
                <mxCell id="78" value="" style="endArrow=block;html=1;rounded=1;strokeColor=default;align=center;verticalAlign=middle;fontFamily=Helvetica;fontSize=11;fontColor=default;labelBackgroundColor=default;edgeStyle=none;endFill=1;exitX=1.076;exitY=0.101;exitDx=0;exitDy=0;exitPerimeter=0;entryX=-0.22;entryY=0.497;entryDx=0;entryDy=0;entryPerimeter=0;" edge="1" parent="1">
                    <mxGeometry width="50" height="50" relative="1" as="geometry">
                        <mxPoint x="61.99999999999999" y="668.7599999999999" as="sourcePoint"/>
                        <mxPoint x="222.04000000000002" y="669.61" as="targetPoint"/>
                    </mxGeometry>
                </mxCell>
                <mxCell id="79" value="Запрос на заказ &lt;br&gt;недостающих материалов" style="text;html=1;align=center;verticalAlign=middle;resizable=0;points=[];autosize=1;strokeColor=none;fillColor=none;fontFamily=Helvetica;fontSize=11;fontColor=default;labelBackgroundColor=default;" vertex="1" parent="1">
                    <mxGeometry x="59.239999999999995" y="630" width="160" height="40" as="geometry"/>
                </mxCell>
                <mxCell id="80" value="" style="rounded=0;whiteSpace=wrap;html=1;" vertex="1" parent="1">
                    <mxGeometry x="394.24" y="650" width="10" height="130" as="geometry"/>
                </mxCell>
                <mxCell id="81" value="" style="endArrow=block;html=1;rounded=1;strokeColor=default;align=center;verticalAlign=middle;fontFamily=Helvetica;fontSize=11;fontColor=default;labelBackgroundColor=default;edgeStyle=none;endFill=1;entryX=0.06;entryY=0.197;entryDx=0;entryDy=0;entryPerimeter=0;exitX=0.94;exitY=0.552;exitDx=0;exitDy=0;exitPerimeter=0;" edge="1" parent="1" target="80">
                    <mxGeometry width="50" height="50" relative="1" as="geometry">
                        <mxPoint x="233.64" y="676.76" as="sourcePoint"/>
                        <mxPoint x="387.24" y="669.31" as="targetPoint"/>
                    </mxGeometry>
                </mxCell>
                <mxCell id="82" value="&lt;span style=&quot;color: rgb(0, 0, 0);&quot;&gt;Запрос на заказ&lt;/span&gt;&lt;br style=&quot;color: rgb(63, 63, 63); scrollbar-color: rgb(226, 226, 226) rgb(251, 251, 251);&quot;&gt;&lt;span style=&quot;color: rgb(0, 0, 0);&quot;&gt;недостающих материалов&lt;/span&gt;" style="text;html=1;align=center;verticalAlign=middle;resizable=0;points=[];autosize=1;strokeColor=none;fillColor=none;fontFamily=Helvetica;fontSize=11;fontColor=default;labelBackgroundColor=default;" vertex="1" parent="1">
                    <mxGeometry x="234.24" y="640" width="160" height="40" as="geometry"/>
                </mxCell>
                <mxCell id="83" value="" style="endArrow=block;html=1;rounded=0;strokeColor=default;align=center;verticalAlign=middle;fontFamily=Helvetica;fontSize=11;fontColor=default;labelBackgroundColor=default;edgeStyle=orthogonalEdgeStyle;endFill=1;exitX=1.017;exitY=0.198;exitDx=0;exitDy=0;exitPerimeter=0;entryX=1.005;entryY=0.429;entryDx=0;entryDy=0;entryPerimeter=0;" edge="1" parent="1" source="80" target="80">
                    <mxGeometry width="50" height="50" relative="1" as="geometry">
                        <mxPoint x="449.24" y="676" as="sourcePoint"/>
                        <mxPoint x="409.24" y="695" as="targetPoint"/>
                        <Array as="points">
                            <mxPoint x="439.24" y="676"/>
                            <mxPoint x="439.24" y="705"/>
                            <mxPoint x="404.24" y="705"/>
                        </Array>
                    </mxGeometry>
                </mxCell>
                <mxCell id="84" value="" style="endArrow=none;html=1;rounded=1;strokeColor=default;align=center;verticalAlign=middle;fontFamily=Helvetica;fontSize=11;fontColor=default;labelBackgroundColor=default;edgeStyle=none;endFill=0;entryX=0.06;entryY=0.197;entryDx=0;entryDy=0;entryPerimeter=0;exitX=0.94;exitY=0.552;exitDx=0;exitDy=0;exitPerimeter=0;dashed=1;startArrow=open;startFill=0;" edge="1" parent="1">
                    <mxGeometry width="50" height="50" relative="1" as="geometry">
                        <mxPoint x="232.64" y="755.76" as="sourcePoint"/>
                        <mxPoint x="394.24" y="755" as="targetPoint"/>
                    </mxGeometry>
                </mxCell>
                <mxCell id="85" value="Сообщение о создании" style="text;html=1;align=center;verticalAlign=middle;resizable=0;points=[];autosize=1;strokeColor=none;fillColor=none;fontFamily=Helvetica;fontSize=11;fontColor=default;labelBackgroundColor=default;" vertex="1" parent="1">
                    <mxGeometry x="250" y="733" width="140" height="30" as="geometry"/>
                </mxCell>
                <mxCell id="86" value="" style="endArrow=block;html=1;rounded=0;strokeColor=default;align=center;verticalAlign=middle;fontFamily=Helvetica;fontSize=11;fontColor=default;labelBackgroundColor=default;edgeStyle=orthogonalEdgeStyle;endFill=1;exitX=1.017;exitY=0.198;exitDx=0;exitDy=0;exitPerimeter=0;entryX=1.005;entryY=0.429;entryDx=0;entryDy=0;entryPerimeter=0;" edge="1" parent="1">
                    <mxGeometry width="50" height="50" relative="1" as="geometry">
                        <mxPoint x="234.24" y="781" as="sourcePoint"/>
                        <mxPoint x="234.24" y="811" as="targetPoint"/>
                        <Array as="points">
                            <mxPoint x="269.24" y="781"/>
                            <mxPoint x="269.24" y="810"/>
                            <mxPoint x="234.24" y="810"/>
                        </Array>
                    </mxGeometry>
                </mxCell>
                <mxCell id="87" value="Отображение &lt;br&gt;данных" style="text;html=1;align=center;verticalAlign=middle;resizable=0;points=[];autosize=1;strokeColor=none;fillColor=none;fontFamily=Helvetica;fontSize=11;fontColor=default;labelBackgroundColor=default;" vertex="1" parent="1">
                    <mxGeometry x="269.24" y="775" width="90" height="40" as="geometry"/>
                </mxCell>
                <mxCell id="88" value="" style="endArrow=none;html=1;rounded=1;strokeColor=default;align=center;verticalAlign=middle;fontFamily=Helvetica;fontSize=11;fontColor=default;labelBackgroundColor=default;edgeStyle=none;endFill=0;entryX=0.06;entryY=0.197;entryDx=0;entryDy=0;entryPerimeter=0;exitX=0.94;exitY=0.552;exitDx=0;exitDy=0;exitPerimeter=0;dashed=1;startArrow=open;startFill=0;" edge="1" parent="1">
                    <mxGeometry width="50" height="50" relative="1" as="geometry">
                        <mxPoint x="62.63999999999998" y="827.76" as="sourcePoint"/>
                        <mxPoint x="224.24" y="827" as="targetPoint"/>
                    </mxGeometry>
                </mxCell>
                <mxCell id="89" value="Сообщение о &lt;br&gt;созданном заказе" style="text;html=1;align=center;verticalAlign=middle;resizable=0;points=[];autosize=1;strokeColor=none;fillColor=none;fontFamily=Helvetica;fontSize=11;fontColor=default;labelBackgroundColor=default;" vertex="1" parent="1">
                    <mxGeometry x="90" y="790" width="110" height="40" as="geometry"/>
                </mxCell>
                <mxCell id="90" value="" style="rounded=0;whiteSpace=wrap;html=1;" vertex="1" parent="1">
                    <mxGeometry x="224.24" y="661" width="10" height="184" as="geometry"/>
                </mxCell>
                <mxCell id="91" value="Создание заказа" style="text;html=1;align=center;verticalAlign=middle;resizable=0;points=[];autosize=1;strokeColor=none;fillColor=none;fontFamily=Helvetica;fontSize=11;fontColor=default;labelBackgroundColor=default;" vertex="1" parent="1">
                    <mxGeometry x="395" y="650" width="110" height="30" as="geometry"/>
                </mxCell>
            </root>
        </mxGraphModel>
    </diagram>
</mxfile>